<svg xmlns="http://www.w3.org/2000/svg" xmlns:xlink="http://www.w3.org/1999/xlink" viewBox="0 0 430 430" width="430" height="430" preserveAspectRatio="xMidYMid meet" style="width: 100%; height: 100%; transform: translate3d(0px, 0px, 0px); content-visibility: visible;"><defs><clipPath id="__lottie_element_194"><rect width="430" height="430" x="0" y="0"/></clipPath><clipPath id="__lottie_element_196"><path d="M0,0 L430,0 L430,430 L0,430z"/></clipPath></defs><g clip-path="url(#__lottie_element_194)"><g clip-path="url(#__lottie_element_196)" transform="matrix(1,0,0,1,0,0)" opacity="1" style="display: block;"><g transform="matrix(1,0,0,1,215,214)" opacity="1" style="display: block;"><g opacity="1" transform="matrix(1,0,0,1,0,0)"><path stroke-linecap="round" stroke-linejoin="round" fill-opacity="0" class="secondary" stroke="rgb(255,255,0)" stroke-opacity="1" stroke-width="18" d=" M44.44599914550781,-66.51799774169922 C31.290000915527344,-75.30899810791016 15.821999549865723,-80 0,-80 C-21.216999053955078,-79.99800109863281 -41.56399917602539,-71.56800079345703 -56.566001892089844,-56.566001892089844 C-71.56800079345703,-41.56399917602539 -79.99800109863281,-21.216999053955078 -80,0 C-80,15.821999549865723 -75.30899810791016,31.290000915527344 -66.51799774169922,44.44599914550781 C-57.72700119018555,57.60200119018555 -45.233001708984375,67.8550033569336 -30.614999771118164,73.91000366210938 C-15.996999740600586,79.96499633789062 0.08900000154972076,81.55000305175781 15.607000350952148,78.46299743652344 C31.125,75.3759994506836 45.38100051879883,67.75700378417969 56.569000244140625,56.569000244140625 C67.75700378417969,45.38100051879883 75.3759994506836,31.125 78.46299743652344,15.607000350952148 C81.55000305175781,0.08900000154972076 79.96499633789062,-15.996999740600586 73.91000366210938,-30.614999771118164 C67.8550033569336,-45.233001708984375 57.60200119018555,-57.72700119018555 44.44599914550781,-66.51799774169922z"/></g></g><g transform="matrix(0.36551833152770996,-0.9308041334152222,0.9308041334152222,0.36551833152770996,215.31100463867188,214.5)" opacity="1" style="display: block;"><g opacity="1" transform="matrix(1,0,0,1,0,0)"><path stroke-linecap="round" stroke-linejoin="round" fill-opacity="0" class="primary" stroke="rgb(255,255,255)" stroke-opacity="1" stroke-width="18" d=" M141.40899658203125,25.240999221801758 C141.40899658203125,25.240999221801758 150.13600158691406,30.281999588012695 150.13600158691406,30.281999588012695 C150.13600158691406,30.281999588012695 150.13600158691406,30.281999588012695 150.13600158691406,30.281999588012695 C152.67599487304688,31.7450008392334 154.9029998779297,33.69300079345703 156.68899536132812,36.016998291015625 C158.47500610351562,38.340999603271484 159.78599548339844,40.99300003051758 160.5469970703125,43.82400131225586 C161.3070068359375,46.654998779296875 161.5030059814453,49.606998443603516 161.1219940185547,52.51300048828125 C160.74099731445312,55.41899871826172 159.79100036621094,58.22200012207031 158.3260040283203,60.76100158691406 C158.3260040283203,60.76100158691406 131.81100463867188,106.68499755859375 131.81100463867188,106.68499755859375 C128.85000610351562,111.81300354003906 123.9739990234375,115.55500030517578 118.25499725341797,117.08699798583984 C112.53600311279297,118.61900329589844 106.44200134277344,117.81700134277344 101.31400299072266,114.85700225830078 C101.31400299072266,114.85700225830078 92.55999755859375,109.7979965209961 92.55999755859375,109.7979965209961 C79.5979995727539,120.74600219726562 64.7959976196289,129.30799865722656 48.84199905395508,135.08399963378906 C48.84199905395508,135.08399963378906 48.84199905395508,145.19200134277344 48.84199905395508,145.19200134277344 C48.84199905395508,148.1219940185547 48.26499938964844,151.0240020751953 47.143001556396484,153.7310028076172 C46.020999908447266,156.43800354003906 44.37699890136719,158.89700317382812 42.30500030517578,160.968994140625 C40.233001708984375,163.04100036621094 37.77199935913086,164.68299865722656 35.06399917602539,165.8040008544922 C32.35599899291992,166.9250030517578 29.454999923706055,167.50100708007812 26.524999618530273,167.5 C26.524999618530273,167.5 -26.503999710083008,167.5 -26.503999710083008,167.5 C-29.43400001525879,167.50100708007812 -32.334999084472656,166.9250030517578 -35.042999267578125,165.8040008544922 C-37.750999450683594,164.68299865722656 -40.21099853515625,163.04100036621094 -42.28300094604492,160.968994140625 C-44.35499954223633,158.89700317382812 -45.999000549316406,156.43800354003906 -47.12099838256836,153.7310028076172 C-48.24300003051758,151.0240020751953 -48.81999969482422,148.1219940185547 -48.81999969482422,145.19200134277344 C-48.81999969482422,145.19200134277344 -48.81999969482422,135.11900329589844 -48.81999969482422,135.11900329589844 C-64.77400207519531,129.34300231933594 -79.5770034790039,120.78199768066406 -92.53900146484375,109.83399963378906 C-92.53900146484375,109.83399963378906 -101.29299926757812,114.89299774169922 -101.29299926757812,114.89299774169922 C-106.4209976196289,117.85299682617188 -112.51499938964844,118.65499877929688 -118.23400115966797,117.12300109863281 C-123.9530029296875,115.59100341796875 -128.82899475097656,111.8489990234375 -131.7899932861328,106.72100067138672 C-131.7899932861328,106.72100067138672 -158.31300354003906,60.797000885009766 -158.31300354003906,60.797000885009766 C-159.781005859375,58.25899887084961 -160.73500061035156,55.45500183105469 -161.11900329589844,52.54800033569336 C-161.5030059814453,49.64099884033203 -161.30999755859375,46.6870002746582 -160.55099487304688,43.854000091552734 C-159.79200744628906,41.020999908447266 -158.48199462890625,38.36600112915039 -156.6959991455078,36.040000915527344 C-154.91000366210938,33.7140007019043 -152.68299865722656,31.763999938964844 -150.14199829101562,30.299999237060547 C-150.14199829101562,30.299999237060547 -141.4149932861328,25.259000778198242 -141.4149932861328,25.259000778198242 C-144.36900329589844,8.548999786376953 -144.36900329589844,-8.548999786376953 -141.4149932861328,-25.259000778198242 C-141.4149932861328,-25.259000778198242 -150.14199829101562,-30.299999237060547 -150.14199829101562,-30.299999237060547 C-152.68299865722656,-31.763999938964844 -154.91000366210938,-33.7140007019043 -156.6959991455078,-36.040000915527344 C-158.48199462890625,-38.36600112915039 -159.79200744628906,-41.020999908447266 -160.55099487304688,-43.854000091552734 C-161.30999755859375,-46.6870002746582 -161.5030059814453,-49.64099884033203 -161.11900329589844,-52.54800033569336 C-160.73500061035156,-55.45500183105469 -159.781005859375,-58.25899887084961 -158.31300354003906,-60.797000885009766 C-158.31300354003906,-60.797000885009766 -131.7989959716797,-106.72100067138672 -131.7989959716797,-106.72100067138672 C-128.83799743652344,-111.8489990234375 -123.96199798583984,-115.59100341796875 -118.24299621582031,-117.12300109863281 C-112.52400207519531,-118.65499877929688 -106.43000030517578,-117.85299682617188 -101.302001953125,-114.89299774169922 C-101.302001953125,-114.89299774169922 -92.5479965209961,-109.83399963378906 -92.5479965209961,-109.83399963378906 C-79.58599853515625,-120.78199768066406 -64.78299713134766,-129.34300231933594 -48.82899856567383,-135.11900329589844 C-48.82899856567383,-135.11900329589844 -48.82899856567383,-145.19200134277344 -48.82899856567383,-145.19200134277344 C-48.82899856567383,-148.1219940185547 -48.25199890136719,-151.0240020751953 -47.130001068115234,-153.7310028076172 C-46.007999420166016,-156.43800354003906 -44.36399841308594,-158.89700317382812 -42.29199981689453,-160.968994140625 C-40.220001220703125,-163.04100036621094 -37.7599983215332,-164.6840057373047 -35.051998138427734,-165.80499267578125 C-32.34400177001953,-166.92599487304688 -29.44300079345703,-167.50100708007812 -26.51300048828125,-167.5 C-26.51300048828125,-167.5 26.506999969482422,-167.5 26.506999969482422,-167.5 C29.437000274658203,-167.50100708007812 32.3390007019043,-166.92599487304688 35.047000885009766,-165.80499267578125 C37.755001068115234,-164.6840057373047 40.21500015258789,-163.04100036621094 42.2869987487793,-160.968994140625 C44.35900115966797,-158.89700317382812 46.00299835205078,-156.43800354003906 47.125,-153.7310028076172 C48.24700164794922,-151.0240020751953 48.82400131225586,-148.1219940185547 48.82400131225586,-145.19200134277344 C48.82400131225586,-145.19200134277344 48.82400131225586,-135.15499877929688 48.82400131225586,-135.15499877929688 C64.77799987792969,-129.37899780273438 79.58000183105469,-120.81800079345703 92.54199981689453,-109.87000274658203 C92.54199981689453,-109.87000274658203 101.2959976196289,-114.92900085449219 101.2959976196289,-114.92900085449219 C106.42400360107422,-117.88899993896484 112.51799774169922,-118.69100189208984 118.23699951171875,-117.15899658203125 C123.95600128173828,-115.62699890136719 128.83200073242188,-111.88500213623047 131.79299926757812,-106.75700378417969 C131.79299926757812,-106.75700378417969 158.30799865722656,-60.814998626708984 158.30799865722656,-60.814998626708984 C159.7760009765625,-58.277000427246094 160.72900390625,-55.472999572753906 161.11300659179688,-52.566001892089844 C161.4969940185547,-49.659000396728516 161.3040008544922,-46.70500183105469 160.5449981689453,-43.87200164794922 C159.78599548339844,-41.03900146484375 158.4759979248047,-38.38399887084961 156.69000244140625,-36.05799865722656 C154.9040069580078,-33.731998443603516 152.677001953125,-31.781999588012695 150.13600158691406,-30.31800079345703 C150.13600158691406,-30.31800079345703 141.40899658203125,-25.277000427246094 141.40899658203125,-25.277000427246094 C144.36300659179688,-8.567000389099121 144.36300659179688,8.531000137329102 141.40899658203125,25.240999221801758z"/></g></g></g></g></svg>