<svg xmlns="http://www.w3.org/2000/svg" xmlns:xlink="http://www.w3.org/1999/xlink" viewBox="0 0 430 430" width="430" height="430" preserveAspectRatio="xMidYMid meet" style="width: 100%; height: 100%; transform: translate3d(0px, 0px, 0px); content-visibility: visible;"><defs><clipPath id="__lottie_element_3812"><rect width="430" height="430" x="0" y="0"/></clipPath><clipPath id="__lottie_element_3814"><path d="M0,0 L430,0 L430,430 L0,430z"/></clipPath><clipPath id="__lottie_element_3822"><path d="M0,0 L430,0 L430,430 L0,430z"/></clipPath><g id="__lottie_element_3825"><g transform="matrix(0.9939037561416626,-0.11025100201368332,0.11025100201368332,0.9939037561416626,-94.93570709228516,-2.087472438812256)" opacity="1" style="display: none;"><g opacity="1" transform="matrix(1,0,0,1,250,249.75999450683594)"><path fill="rgb(255,0,0)" fill-opacity="1" d=" M26.690000534057617,-186.57000732421875 C26.690000534057617,-186.57000732421875 -133.42999267578125,-186.57000732421875 -133.42999267578125,-186.57000732421875 C-133.42999267578125,-186.57000732421875 -133.42999267578125,186.57000732421875 -133.42999267578125,186.57000732421875 C-133.42999267578125,186.57000732421875 133.42999267578125,186.57000732421875 133.42999267578125,186.57000732421875 C133.42999267578125,186.57000732421875 133.42999267578125,-79.81999969482422 133.42999267578125,-79.81999969482422 C133.42999267578125,-79.81999969482422 26.690000534057617,-186.57000732421875 26.690000534057617,-186.57000732421875z"/></g></g></g><filter id="__lottie_element_3831" filterUnits="objectBoundingBox" x="0%" y="0%" width="100%" height="100%"><feComponentTransfer in="SourceGraphic"><feFuncA type="table" tableValues="1.0 0.0"/></feComponentTransfer></filter><mask id="__lottie_element_3825_2" mask-type="alpha"><g filter="url(#__lottie_element_3831)"><rect width="430" height="430" x="0" y="0" fill="#ffffff" opacity="0"/><use xmlns:ns1="http://www.w3.org/1999/xlink" ns1:href="#__lottie_element_3825"/></g></mask><clipPath id="__lottie_element_3866"><path d="M0,0 L430,0 L430,430 L0,430z"/></clipPath></defs><g clip-path="url(#__lottie_element_3812)"><g clip-path="url(#__lottie_element_3814)" transform="matrix(1,0,0,1,0,0)" opacity="1" style="display: block;"><g clip-path="url(#__lottie_element_3866)" transform="matrix(1,0,0,1,0,0)" opacity="1" style="display: block;"><g transform="matrix(1,0,0,1,215,275.0469970703125)" opacity="1" style="display: block;"><g opacity="1" transform="matrix(1,0,0,1,0,0)"><path stroke-linecap="round" stroke-linejoin="round" fill-opacity="0" class="secondary" stroke="rgb(255,255,0)" stroke-opacity="1" stroke-width="18" d=" M73.38800048828125,0 C73.38800048828125,0 -73.38800048828125,0 -73.38800048828125,0"/></g></g><g transform="matrix(1,0,0,1,215.0019989013672,275.0450134277344)" opacity="1" style="display: block;"><g opacity="1" transform="matrix(1,0,0,1,0,0)"><path stroke-linecap="round" stroke-linejoin="round" fill-opacity="0" class="secondary" stroke="rgb(255,255,0)" stroke-opacity="1" stroke-width="18" d=" M0,73.38800048828125 C0,73.38800048828125 0,-73.38800048828125 0,-73.38800048828125"/></g></g></g><g mask="url(#__lottie_element_3825_2)" style="display: none;"><g clip-path="url(#__lottie_element_3822)" transform="matrix(0.9939037561416626,-0.11025100201368332,0.11025100201368332,0.9939037561416626,-55.29638671875,28.73012351989746)" opacity="1"><g transform="matrix(1,0,0,1,215,275.0469970703125)" opacity="1" style="display: block;"><g opacity="1" transform="matrix(1,0,0,1,0,0)"><path stroke-linecap="round" stroke-linejoin="round" fill-opacity="0" class="secondary" stroke="rgb(255,255,0)" stroke-opacity="1" stroke-width="18" d=" M73.38800048828125,0 C73.38800048828125,0 -73.38800048828125,0 -73.38800048828125,0"/></g></g><g transform="matrix(1,0,0,1,215.0019989013672,275.0450134277344)" opacity="1" style="display: block;"><g opacity="1" transform="matrix(1,0,0,1,0,0)"><path stroke-linecap="round" stroke-linejoin="round" fill-opacity="0" class="secondary" stroke="rgb(255,255,0)" stroke-opacity="1" stroke-width="18" d=" M0,73.38800048828125 C0,73.38800048828125 0,-73.38800048828125 0,-73.38800048828125"/></g></g></g></g><g transform="matrix(1,0,0,1,-35,-35)" opacity="1" style="display: block;"><g opacity="1" transform="matrix(1,0,0,1,250,249.75999450683594)"><path stroke-linecap="round" stroke-linejoin="round" fill-opacity="0" class="primary" stroke="rgb(255,255,255)" stroke-opacity="1" stroke-width="18" d=" M26.690000534057617,-186.57000732421875 C26.690000534057617,-186.57000732421875 -133.42999267578125,-186.57000732421875 -133.42999267578125,-186.57000732421875 C-133.42999267578125,-186.57000732421875 -133.42999267578125,186.57000732421875 -133.42999267578125,186.57000732421875 C-133.42999267578125,186.57000732421875 133.42999267578125,186.57000732421875 133.42999267578125,186.57000732421875 C133.42999267578125,186.57000732421875 133.42999267578125,-79.81999969482422 133.42999267578125,-79.81999969482422 C133.42999267578125,-79.81999969482422 26.690000534057617,-186.57000732421875 26.690000534057617,-186.57000732421875z"/></g><g opacity="0" transform="matrix(1,0,0,1,330.05999755859375,116.56700134277344)"><path stroke-linecap="round" stroke-linejoin="round" fill-opacity="0" class="primary" stroke="rgb(255,255,255)" stroke-opacity="1" stroke-width="18" d=" M-213.23699951171875,-53.37300109863281 C-213.23699951171875,-53.37300109863281 -213.23699951171875,319.57000732421875 -213.23699951171875,319.57000732421875 C-213.23699951171875,319.57000732421875 53.37300109863281,319.57000732421875 53.37300109863281,319.57000732421875"/></g></g><g transform="matrix(1,0,0,1,-35,-35)" opacity="1" style="display: block;"><g opacity="1" transform="matrix(1,0,0,1,330.05999755859375,116.56700134277344)"><path stroke-linecap="round" stroke-linejoin="round" fill-opacity="0" class="primary" stroke="rgb(255,255,255)" stroke-opacity="1" stroke-width="18" d=" M-53.37300109863281,-53.37300109863281 C-53.37300109863281,-53.37300109863281 -53.37300109863281,53.37300109863281 -53.37300109863281,53.37300109863281 C-53.37300109863281,53.37300109863281 53.37300109863281,53.37300109863281 53.37300109863281,53.37300109863281"/></g></g></g></g></svg>